<svg xmlns="http://www.w3.org/2000/svg" xmlns:xlink="http://www.w3.org/1999/xlink" width="500" zoomAndPan="magnify" viewBox="0 0 375 374.999991" height="500" preserveAspectRatio="xMidYMid meet" version="1.0"><defs><clipPath id="8d7eabe2b2"><path d="M 45 4.921875 L 361 4.921875 L 361 216 L 45 216 Z M 45 4.921875 " clip-rule="nonzero"/></clipPath><clipPath id="21385921d2"><path d="M 56.707031 277.269531 L 60.457031 277.269531 L 60.457031 281.019531 L 56.707031 281.019531 Z M 56.707031 277.269531 " clip-rule="nonzero"/></clipPath></defs><g clip-path="url(#8d7eabe2b2)"><path fill="#ffd700" d="M 322.335938 83.929688 C 340.023438 101.65625 352.65625 121.472656 360.234375 143.382812 C 356.246094 108.050781 341.167969 77.335938 315.03125 51.164062 C 284.199219 20.332031 246.972656 4.933594 203.390625 4.933594 C 159.765625 4.933594 122.539062 20.332031 91.707031 51.164062 C 60.875 81.996094 45.4375 119.222656 45.4375 162.847656 C 45.4375 181.402344 48.242188 198.808594 53.847656 215.035156 C 53.097656 208.71875 52.742188 202.207031 52.742188 195.574219 C 52.742188 151.988281 68.179688 114.761719 99.011719 83.929688 C 129.84375 53.097656 167.070312 37.703125 210.691406 37.703125 C 254.277344 37.703125 291.503906 53.097656 322.335938 83.929688 " fill-opacity="1" fill-rule="nonzero"/></g><path fill="#2e3a87" d="M 331.691406 157.082031 C 342.984375 199.207031 337.734375 239.117188 315.902344 276.898438 C 294.109375 314.679688 262.171875 339.195312 220.011719 350.445312 C 195.847656 356.957031 172.359375 357.984375 149.621094 353.523438 C 182.191406 367.734375 216.339844 370.066406 252.066406 360.511719 C 294.1875 349.222656 326.125 324.664062 347.917969 286.925781 C 369.75 249.144531 375 209.191406 363.710938 167.109375 C 352.417969 124.988281 327.902344 93.011719 290.160156 71.21875 C 274.054688 61.941406 257.632812 55.664062 240.734375 52.347656 C 246.617188 54.914062 252.382812 57.875 258.105469 61.191406 C 295.886719 82.980469 320.441406 114.960938 331.691406 157.082031 " fill-opacity="1" fill-rule="nonzero"/><path fill="#b0bec5" d="M 84.601562 51.875 C 53.53125 69.007812 30.910156 94.589844 16.777344 128.699219 C 0.0390625 168.847656 0 209.074219 16.582031 249.300781 C 33.160156 289.53125 61.546875 317.992188 101.695312 334.652344 C 141.921875 351.390625 182.109375 351.472656 222.339844 334.890625 C 239.472656 327.824219 254.433594 318.664062 267.34375 307.296875 C 261.738281 310.375 255.894531 313.136719 249.777344 315.664062 C 209.507812 332.285156 169.359375 332.207031 129.171875 315.507812 C 88.984375 298.769531 60.597656 270.304688 43.976562 230.078125 C 27.398438 189.847656 27.4375 149.621094 44.175781 109.472656 C 53.769531 86.417969 67.269531 67.191406 84.601562 51.875 " fill-opacity="1" fill-rule="nonzero"/><g clip-path="url(#21385921d2)"><path fill="#b0bec5" d="M 56.707031 277.269531 L 60.457031 277.269531 L 60.457031 281.019531 L 56.707031 281.019531 Z M 56.707031 277.269531 " fill-opacity="1" fill-rule="nonzero"/></g></svg>